<?xml version="1.0" encoding="UTF-8" standalone="no"?>
<!-- Uploaded to: SVG Repo, www.svgrepo.com, Generator: SVG Repo Mixer Tools -->

<svg
   width="109.1631"
   height="110.26078"
   version="1.1"
   id="svg10"
   sodipodi:docname=".directory.svg"
   inkscape:version="1.4 (e7c3feb100, 2024-10-09)"
   xml:space="preserve"
   xmlns:inkscape="http://www.inkscape.org/namespaces/inkscape"
   xmlns:sodipodi="http://sodipodi.sourceforge.net/DTD/sodipodi-0.dtd"
   xmlns:xlink="http://www.w3.org/1999/xlink"
   xmlns="http://www.w3.org/2000/svg"
   xmlns:svg="http://www.w3.org/2000/svg"
   xmlns:rdf="http://www.w3.org/1999/02/22-rdf-syntax-ns#"
   xmlns:cc="http://creativecommons.org/ns#"
   xmlns:dc="http://purl.org/dc/elements/1.1/"><defs
     id="defs14"><linearGradient
       inkscape:collect="always"
       id="linearGradient8189"><stop
         style="stop-color:#00f2c8;stop-opacity:0.91764712;"
         offset="0.24679486"
         id="stop8199" /><stop
         style="stop-color:#4ab3ff;stop-opacity:0.6708861;"
         offset="0.90705127"
         id="stop8197" /></linearGradient><radialGradient
       inkscape:collect="always"
       xlink:href="#linearGradient8189"
       id="radialGradient8191"
       cx="54.58155"
       cy="55.13039"
       fx="54.58155"
       fy="55.13039"
       r="54.58155"
       gradientTransform="matrix(0.91726433,0,0,0.92648779,0,-0.50849356)"
       gradientUnits="userSpaceOnUse" /></defs><sodipodi:namedview
     id="namedview12"
     pagecolor="#505050"
     bordercolor="#eeeeee"
     borderopacity="1"
     inkscape:showpageshadow="0"
     inkscape:pageopacity="0"
     inkscape:pagecheckerboard="0"
     inkscape:deskcolor="#505050"
     showgrid="false"
     inkscape:zoom="7.015625"
     inkscape:cx="50.886414"
     inkscape:cy="90.298441"
     inkscape:window-width="2560"
     inkscape:window-height="1372"
     inkscape:window-x="0"
     inkscape:window-y="44"
     inkscape:window-maximized="1"
     inkscape:current-layer="svg10" /><title
     id="title2">Emacs</title><desc
     id="desc4">This is shape (source) for Clarity vector icon theme for gtk</desc><metadata
     id="metadata6"><rdf:RDF><cc:Work
         rdf:about=""><dc:title>Emacs</dc:title><dc:description>This is shape (source) for Clarity vector icon theme for gtk</dc:description><dc:creator><cc:Agent><dc:title>Jakub Jankiewicz</dc:title></cc:Agent></dc:creator><dc:rights><cc:Agent><dc:title>Jakub Jankiewicz</dc:title></cc:Agent></dc:rights><dc:date>2010</dc:date><dc:format>image/svg+xml</dc:format><dc:type
           rdf:resource="http://purl.org/dc/dcmitype/StillImage" /><cc:license
           rdf:resource="http://creativecommons.org/licenses/by-sa/3.0/" /></cc:Work></rdf:RDF></metadata><path
     d="M 50.040545,0 C 22.393313,0 0,22.664635 0,50.594313 c 0,27.929679 22.393313,50.543977 50.040545,50.543977 27.647233,0 50.090875,-22.614298 50.090875,-50.543977 C 100.13142,22.664635 77.687778,0 50.040545,0 Z m 18.224022,12.384279 c 0.93038,-0.01 1.80402,-0.02257 2.517129,0 6.058039,0.191751 11.539976,4.593872 11.5788,10.068522 0.194136,5.396997 -3.61566,7.935381 -8.5079,7.702417 0,0 -0.642799,0.12932 -4.07775,-0.553768 -6.833605,-1.358956 -14.507083,-2.049579 -20.13704,-1.661306 -1.747229,0.116483 -5.047108,1.12525 -4.581177,3.221927 0.345384,2.153854 3.543815,4.571195 5.537684,6.141795 2.273395,1.790789 13.407364,10.197943 19.331559,14.90141 0,0 -20.63385,0.261765 -26.178152,1.610965 -10.950406,2.417679 -13.250636,7.343076 -11.327084,9.716123 2.028913,2.367795 6.094251,5.644968 19.683956,9.061667 12.289398,2.918558 18.615891,3.835204 23.509994,7.249335 1.914298,1.335412 1.198333,2.746764 1.157882,3.171584 -1.552778,1.781704 -4.338265,2.673376 -9.26304,3.372955 -4.706674,0.668585 -13.240105,0.654459 -13.240105,0.654459 -7.001036,0.02743 -16.126168,-1.009642 -18.526075,-1.308908 -5.926065,-0.738994 -10.370576,-2.064051 -10.370576,-2.064051 0.08236,0 16.53631,-0.06415 22.905883,-0.503428 2.50375,-0.172673 11.646717,-0.549833 11.729825,-1.459935 C 60.0674,81.05962 58.914308,80.578269 51.148082,79.339938 37.861458,77.708723 33.789632,75.406424 25.674727,70.63067 11.935541,62.544929 10.471701,53.907185 19.130187,48.78198 c 7.532499,-3.960384 19.423975,-6.291941 34.333656,-2.215073 0,0 -4.822473,-2.668483 -6.393513,-3.876381 -4.175409,-3.210279 -10.743934,-7.758513 -14.549009,-14.397984 -0.854201,-1.786055 -3.010014,-4.813773 -1.107538,-7.299677 2.912049,-3.805075 9.590189,-2.381605 19.180529,-0.906167 0,0 10.036325,1.163247 14.951754,1.409592 4.515007,0.226277 5.891413,-0.899229 5.386658,-2.064047 -0.854686,-1.972354 -3.550548,-2.864508 -19.93567,-6.242482 0,0 10.754856,-0.735822 17.267513,-0.805482 z"
     id="path8"
     style="fill:url(#radialGradient8191);fill-opacity:1;stroke-width:0.917264" /><style
     type="text/css"
     id="style1">
<![CDATA[
	.st0{fill:#000000;}
]]>
</style><g
     id="g2"
     style="fill:#d40000;fill-opacity:1"
     transform="matrix(0.05868715,0,0,0.05868715,80.871047,80.037889)">
	<path
   class="st0"
   d="m 186.521,265.189 v 27.578 c 0,4.969 4.219,9.016 9.438,9.016 h 23.016 c 5.203,0 9.422,-4.047 9.422,-9.016 v -23.094 h 7.859 v 23.094 c 0,4.969 4.219,9.016 9.422,9.016 h 23.031 c 5.203,0 9.438,-4.047 9.438,-9.016 v -23.094 h 7.844 v 23.094 c 0,4.969 4.219,9.016 9.438,9.016 h 23.016 c 5.203,0 9.422,-4.047 9.422,-9.016 v -27.578 c 23.984,-6.969 64.031,-23.141 77.656,-55.828 9.891,-23.766 6.016,-55.047 -8.797,-115.344 C 381.88,33.689 338.755,0.001 257.177,0.001 c -81.578,0 -124.688,33.688 -139.516,94.016 -14.828,60.297 -18.719,91.578 -8.797,115.344 13.61,32.687 53.657,48.844 77.657,55.828 z M 314.114,108.83 c 21.688,-3.547 42.844,13.547 47.25,38.156 4.391,24.625 -9.625,47.453 -31.297,51.016 -21.719,3.531 -42.891,-13.531 -47.281,-38.172 -4.39,-24.61 9.641,-47.438 31.328,-51 z m -26.39,112.484 h -30.547 -30.516 l 30.516,-36.5 z M 153.005,146.986 c 4.438,-24.609 25.563,-41.703 47.25,-38.156 21.703,3.563 35.75,26.391 31.328,51 -4.391,24.641 -25.531,41.703 -47.234,38.172 -21.719,-3.563 -35.735,-26.391 -31.344,-51.016 z"
   id="path1"
   style="fill:#d40000;fill-opacity:1" />
	<path
   class="st0"
   d="m 450.208,397.83 c -16.391,-7.25 -35.656,-1.156 -44.484,13.516 -6.484,8.063 -16.563,4.906 -21.188,2.875 -3.438,-1.516 -39.281,-17.36 -81.844,-36.157 36.578,-16.75 66.781,-30.578 72.828,-33.344 16.703,-7.641 28.703,-11.813 39.719,-2.781 9.609,12.813 27.703,17.609 43.078,10.578 17.266,-7.891 24.563,-27.688 16.297,-44.203 -4.984,-10 -14.547,-16.469 -25.125,-18.297 5.156,-9.031 5.891,-20.188 0.875,-30.203 -8.25,-16.516 -28.938,-23.484 -46.203,-15.594 -14.953,6.844 -22.406,22.594 -18.781,37.422 0.859,11.156 -15.75,20.094 -26.766,25.141 -7.688,3.516 -55.188,25.672 -105.969,49.172 -47.75,-21.094 -91.875,-40.578 -99.359,-43.875 -16.828,-7.438 -27.844,-13.609 -27.609,-27.469 4.188,-15.25 -3.484,-31.641 -18.969,-38.5 -17.359,-7.656 -37.953,-0.406 -45.984,16.219 -4.859,10.063 -3.969,21.219 1.328,30.203 -10.563,1.953 -20.031,8.531 -24.875,18.594 -8.016,16.641 -0.438,36.328 16.938,44 15.047,6.641 32.484,2.078 42.094,-10.047 8.453,-7.766 26.234,-1.234 37.297,3.688 5.781,2.547 34.063,14.813 69.359,30.172 -42.5,19.531 -78.5,35.86 -84.156,37.657 -3.359,1.078 -6.375,1.203 -9.031,0.813 -0.203,-0.453 -0.375,-0.938 -0.609,-1.375 -8.234,-16.516 -28.938,-23.5 -46.203,-15.594 -17.266,7.891 -24.563,27.704 -16.297,44.219 5,9.969 14.547,16.453 25.125,18.281 -5.141,9.031 -5.875,20.203 -0.891,30.203 8.281,16.516 28.953,23.5 46.219,15.609 16.313,-7.484 23.703,-25.531 17.531,-41.406 -2.344,-9.906 6.609,-15.344 11.203,-17.453 4.109,-1.859 54.563,-24.969 107.266,-49.094 57.578,25.172 115.453,50.719 121.984,54.61 3,1.781 5.031,3.922 6.406,6.125 -0.25,0.438 -0.5,0.859 -0.719,1.313 -8.016,16.625 -0.453,36.297 16.938,44 17.375,7.656 37.953,0.406 45.984,-16.219 4.844,-10.047 3.953,-21.219 -1.328,-30.188 10.563,-1.969 20.016,-8.563 24.875,-18.594 8.015,-16.642 0.437,-36.346 -16.954,-44.017 z"
   id="path2"
   style="fill:#d40000;fill-opacity:1" />
</g></svg>
